<?xml version="1.0" encoding="UTF-8" standalone="no"?>
<!-- Created with Inkscape (http://www.inkscape.org/) -->

<svg
   width="88.66185mm"
   height="86.768761mm"
   viewBox="0 0 88.66185 86.768761"
   version="1.1"
   id="svg1"
   xmlns="http://www.w3.org/2000/svg"
   xmlns:svg="http://www.w3.org/2000/svg">
  <defs
     id="defs1" />
  <g
     id="layer1"
     transform="translate(-65.087176,-105.50653)">
    <path
       id="rect1-8"
       style="fill:#00e8fc;fill-opacity:1;stroke:#fff5f5;stroke-width:1.317;stroke-dasharray:none;stroke-dashoffset:1.606"
       d="m 109.41727,106.16509 c -2.16763,0 -4.33505,0.83036 -5.99601,2.49132 L 68.348979,143.7292 c -0.65206,0.6266 -1.20395,1.35494 -1.62884,2.16318 -0.01,0.0189 -0.0181,0.0384 -0.0279,0.0574 -0.11344,0.2198 -0.21939,0.44377 -0.31367,0.67438 -0.0332,0.0809 -0.0588,0.16382 -0.0894,0.24546 -0.0627,0.16812 -0.12659,0.33545 -0.1788,0.50849 -0.0483,0.15896 -0.0842,0.32014 -0.12299,0.48111 -0.0243,0.10194 -0.0538,0.20154 -0.0744,0.30489 -0.16858,0.83579 -0.20979,1.69118 -0.12351,2.5368 0.006,0.064 0.0196,0.12563 0.0274,0.18914 0.0255,0.20425 0.0521,0.40847 0.0925,0.61081 0.0357,0.18148 0.0843,0.3578 0.13126,0.53485 0.0215,0.0802 0.0376,0.16119 0.0615,0.24081 0.81227,2.73414 2.95802,4.87989 5.69216,5.69216 0.0787,0.0237 0.15897,0.0397 0.23822,0.061 0.17837,0.0474 0.35613,0.0959 0.53899,0.13178 0.20093,0.0401 0.40335,0.0666 0.60616,0.092 0.0646,0.008 0.12724,0.0214 0.19224,0.0279 0.30759,0.0314 0.61616,0.0457 0.92501,0.0434 h 1.23972 v 23.83575 c 0,5.23873 4.21754,9.45627 9.45627,9.45627 h 48.854381 c 5.23873,0 9.45575,-4.21754 9.45575,-9.45627 V 158.3247 h 1.24024 c 0.30883,0.002 0.61744,-0.012 0.92501,-0.0434 0.065,-0.006 0.12768,-0.02 0.19223,-0.0279 0.20281,-0.0254 0.40524,-0.0519 0.60617,-0.092 0.18285,-0.0359 0.36062,-0.0844 0.53898,-0.13178 0.0793,-0.0213 0.15949,-0.0373 0.23823,-0.061 2.73585,-0.81278 4.8826,-2.96074 5.69371,-5.69732 0.0198,-0.0661 0.033,-0.1335 0.0512,-0.19999 0.051,-0.18871 0.10196,-0.37726 0.14004,-0.57103 0.0404,-0.20217 0.067,-0.40621 0.0925,-0.61029 0.008,-0.0635 0.021,-0.12519 0.0274,-0.18914 0.0586,-0.57394 0.0583,-1.15208 -5.2e-4,-1.72599 -0.0278,-0.27151 -0.0689,-0.54193 -0.12299,-0.81029 -0.0222,-0.11125 -0.0541,-0.21854 -0.0806,-0.32815 -0.0369,-0.15152 -0.0703,-0.30347 -0.11576,-0.4532 -0.0537,-0.17853 -0.11955,-0.35122 -0.18448,-0.52451 -0.0294,-0.078 -0.0535,-0.15733 -0.0853,-0.23461 -0.0906,-0.22159 -0.19348,-0.43639 -0.30179,-0.64803 -0.0149,-0.0289 -0.0266,-0.059 -0.0419,-0.0879 -0.4222,-0.8021 -0.96973,-1.5255 -1.61592,-2.1487 l -35.08316,-35.08313 c -1.66095,-1.66096 -3.8289,-2.49132 -5.99653,-2.49132 z" />
    <path
       id="rect2-6"
       style="fill:#f6f6f6;fill-opacity:1;stroke:none;stroke-width:0.505731;stroke-dasharray:none;stroke-dashoffset:6.06992;stroke-opacity:1"
       d="m 101.67976,158.32418 c -1.894241,0 -3.418921,1.5252 -3.418921,3.41943 v 17.27595 9.17773 3.41943 h 3.418921 15.47657 3.41891 v -3.41943 -9.17773 -17.27595 c 0,-1.89423 -1.52467,-3.41943 -3.41891,-3.41943 z" />
  </g>
</svg>
