<?xml version="1.0" encoding="UTF-8" standalone="no"?>
<!-- Created with Inkscape (http://www.inkscape.org/) -->

<svg
   width="78.348618mm"
   height="76.678841mm"
   viewBox="0 0 78.348618 76.678841"
   version="1.1"
   id="svg1"
   xmlns="http://www.w3.org/2000/svg"
   xmlns:svg="http://www.w3.org/2000/svg">
  <defs
     id="defs1" />
  <g
     id="layer1"
     transform="translate(-73.169997,-15.929715)">
    <path
       id="rect1"
       style="fill:#f60665;fill-opacity:1;stroke:#f60665;stroke-width:1.317;stroke-dasharray:none;stroke-dashoffset:1.606;stroke-opacity:1"
       d="m 112.34355,16.588216 c -1.91169,0 -3.82319,0.732315 -5.28803,2.197156 L 76.124431,49.716911 c -0.575067,0.552614 -1.061792,1.19495 -1.436513,1.907756 -0.0088,0.01667 -0.01597,0.03383 -0.02461,0.05059 -0.100045,0.193846 -0.193485,0.391368 -0.276633,0.594749 -0.02928,0.07135 -0.05186,0.144479 -0.07884,0.21648 -0.0553,0.148269 -0.111642,0.295846 -0.157688,0.448454 -0.0426,0.140191 -0.07426,0.282338 -0.108467,0.424301 -0.02143,0.0899 -0.04747,0.177744 -0.06563,0.268891 -0.148675,0.737103 -0.185019,1.491488 -0.108927,2.237261 0.0053,0.05644 0.01728,0.110793 0.02416,0.166804 0.02249,0.180133 0.04595,0.360243 0.08158,0.538692 0.03148,0.160052 0.07435,0.315553 0.115762,0.471698 0.01896,0.07073 0.03316,0.14216 0.05424,0.212379 0.71636,2.411303 2.608749,4.303691 5.020052,5.020051 0.06941,0.0209 0.1402,0.03499 0.210092,0.05378 0.157309,0.0418 0.31408,0.08458 0.475349,0.116216 0.177205,0.03536 0.355724,0.05872 0.534587,0.08112 0.05697,0.0071 0.112216,0.01888 0.169541,0.02461 0.271271,0.02769 0.543406,0.04031 0.815788,0.03828 h 1.093339 v 21.02132 c 0,4.620161 3.71955,8.339715 8.339711,8.339715 h 43.085856 c 4.62016,0 8.33925,-3.719554 8.33925,-8.339715 v -21.02132 h 1.0938 c 0.27236,0.0018 0.54453,-0.01059 0.81579,-0.03828 0.0573,-0.0053 0.1126,-0.01764 0.16953,-0.02461 0.17886,-0.0224 0.35739,-0.04575 0.5346,-0.08112 0.16125,-0.03166 0.31803,-0.07444 0.47533,-0.116216 0.0699,-0.01879 0.14066,-0.03288 0.21011,-0.05378 2.41281,-0.71681 4.30608,-2.611154 5.02141,-5.024609 0.0175,-0.0583 0.0291,-0.117735 0.0452,-0.176374 0.045,-0.166428 0.0899,-0.332711 0.1235,-0.503601 0.0356,-0.178299 0.0591,-0.358253 0.0816,-0.538236 0.007,-0.056 0.0185,-0.110405 0.0242,-0.166804 0.0517,-0.506171 0.0514,-1.01605 -4.6e-4,-1.522195 -0.0245,-0.239451 -0.0608,-0.477937 -0.10847,-0.71461 -0.0196,-0.09811 -0.0477,-0.192732 -0.0711,-0.2894 -0.0325,-0.133629 -0.062,-0.267639 -0.10209,-0.39969 -0.0474,-0.15745 -0.10544,-0.309755 -0.1627,-0.462583 -0.0259,-0.06879 -0.0472,-0.138754 -0.0752,-0.206909 -0.0799,-0.195426 -0.17063,-0.384856 -0.26616,-0.571506 -0.0131,-0.02549 -0.0234,-0.05199 -0.0369,-0.07748 -0.37235,-0.707392 -0.85523,-1.345381 -1.42512,-1.894996 L 117.63249,18.785372 c -1.46483,-1.464841 -3.3768,-2.197156 -5.28849,-2.197156 z" />
    <path
       id="rect2"
       style="fill:#fff5f5;fill-opacity:1;stroke:#fff5f5;stroke-width:1.317;stroke-dasharray:none;stroke-dashoffset:6.06992;stroke-opacity:1"
       d="m 105.51965,62.588574 c -1.67058,0 -3.01523,1.345106 -3.01523,3.015677 v 15.236075 8.09406 3.015674 h 3.01523 13.64916 3.01522 v -3.015674 -8.09406 -15.236075 c 0,-1.670571 -1.34465,-3.015677 -3.01522,-3.015677 z" />
  </g>
</svg>
