<?xml version="1.0" encoding="UTF-8" standalone="no"?>
<!-- Created with Inkscape (http://www.inkscape.org/) -->

<svg
   width="78.348602mm"
   height="76.678871mm"
   viewBox="0 0 78.348602 76.678871"
   version="1.1"
   id="svg1"
   xmlns="http://www.w3.org/2000/svg"
   xmlns:svg="http://www.w3.org/2000/svg">
  <defs
     id="defs1" />
  <g
     id="layer1"
     transform="translate(-74.714812,-95.883675)">
    <path
       id="rect1-8"
       style="fill:#00e8fc;fill-opacity:1;stroke:#00e8fc;stroke-width:1.317;stroke-dasharray:none;stroke-dashoffset:1.606;stroke-opacity:1"
       d="m 113.88836,96.542176 c -1.91169,0 -3.82319,0.732315 -5.28803,2.197156 L 77.669248,129.67087 c -0.575067,0.55262 -1.061792,1.19495 -1.436513,1.90776 -0.0088,0.0167 -0.01597,0.0338 -0.02461,0.0506 -0.100045,0.19384 -0.193485,0.39137 -0.276633,0.59475 -0.02928,0.0713 -0.05186,0.14448 -0.07884,0.21648 -0.0553,0.14827 -0.111642,0.29584 -0.157688,0.44845 -0.0426,0.14019 -0.07426,0.28234 -0.108467,0.4243 -0.02143,0.0899 -0.04747,0.17775 -0.06563,0.26889 -0.148675,0.73711 -0.185019,1.49149 -0.108927,2.23726 0.0053,0.0564 0.01728,0.1108 0.02416,0.16681 0.02249,0.18013 0.04595,0.36024 0.08158,0.53869 0.03148,0.16005 0.07435,0.31555 0.115762,0.4717 0.01896,0.0707 0.03316,0.14216 0.05424,0.21238 0.71636,2.4113 2.608749,4.30369 5.020052,5.02005 0.06941,0.0209 0.1402,0.035 0.210092,0.0538 0.157309,0.0418 0.31408,0.0846 0.475349,0.11621 0.177205,0.0354 0.355724,0.0587 0.534587,0.0811 0.05697,0.007 0.112216,0.0189 0.169541,0.0246 0.271271,0.0277 0.543406,0.0403 0.815788,0.0383 h 1.093339 v 21.02132 c 0,4.62017 3.719554,8.33972 8.339714,8.33972 h 43.085846 c 4.62016,0 8.33925,-3.71955 8.33925,-8.33972 V 142.543 h 1.0938 c 0.27236,0.002 0.54453,-0.0106 0.81579,-0.0383 0.0573,-0.005 0.1126,-0.0176 0.16953,-0.0246 0.17886,-0.0224 0.35739,-0.0457 0.5346,-0.0811 0.16125,-0.0317 0.31803,-0.0744 0.47533,-0.11621 0.0699,-0.0188 0.14066,-0.0329 0.21011,-0.0538 2.41281,-0.71681 4.30608,-2.61116 5.02141,-5.02461 0.0175,-0.0583 0.0291,-0.11774 0.0452,-0.17638 0.045,-0.16642 0.0899,-0.33271 0.1235,-0.5036 0.0356,-0.1783 0.0591,-0.35825 0.0816,-0.53823 0.007,-0.056 0.0185,-0.11041 0.0242,-0.16681 0.0517,-0.50617 0.0514,-1.01605 -4.6e-4,-1.52219 -0.0245,-0.23945 -0.0608,-0.47794 -0.10847,-0.71461 -0.0196,-0.0981 -0.0477,-0.19273 -0.0711,-0.2894 -0.0325,-0.13363 -0.062,-0.26764 -0.10209,-0.39969 -0.0474,-0.15745 -0.10544,-0.30976 -0.1627,-0.46258 -0.0259,-0.0688 -0.0472,-0.13876 -0.0752,-0.20691 -0.0799,-0.19543 -0.17063,-0.38486 -0.26616,-0.57151 -0.0131,-0.0255 -0.0234,-0.052 -0.0369,-0.0775 -0.37235,-0.70739 -0.85523,-1.34538 -1.42512,-1.895 L 119.1773,98.739332 c -1.46483,-1.464841 -3.3768,-2.197156 -5.28849,-2.197156 z" />
    <path
       id="rect2-6"
       style="fill:#fff5f5;fill-opacity:1;stroke:#fff5f5;stroke-width:1.317;stroke-dasharray:none;stroke-dashoffset:6.06992;stroke-opacity:1"
       d="m 107.06446,142.54253 c -1.67058,0 -3.01523,1.34511 -3.01523,3.01568 v 15.23608 8.09406 3.01567 h 3.01523 13.64916 3.01522 v -3.01567 -8.09406 -15.23608 c 0,-1.67057 -1.34465,-3.01568 -3.01522,-3.01568 z" />
  </g>
</svg>
